<svg id="Grupo_5" data-name="Grupo 5" xmlns="http://www.w3.org/2000/svg" width="21.072" height="21.55" viewBox="0 0 21.072 21.55">
  <path id="Caminho_12" data-name="Caminho 12" d="M119.72,258.731a.489.489,0,0,0-.489-.489h-1.707a.489.489,0,0,0-.489.489v1.707a.489.489,0,0,0,.489.489h1.707a.489.489,0,0,0,.489-.489v-1.707Z" transform="translate(-112.107 -246.842)" fill="#fff"/>
  <path id="Caminho_13" data-name="Caminho 13" d="M216.355,258.731a.489.489,0,0,0-.489-.489h-1.707a.489.489,0,0,0-.489.489v1.707a.489.489,0,0,0,.489.489h1.707a.489.489,0,0,0,.489-.489Z" transform="translate(-204.476 -246.842)" fill="#fff"/>
  <path id="Caminho_14" data-name="Caminho 14" d="M312.983,258.731a.489.489,0,0,0-.489-.489h-1.707a.489.489,0,0,0-.489.489v1.707a.489.489,0,0,0,.489.489h1.707a.489.489,0,0,0,.489-.489Z" transform="translate(-296.838 -246.842)" fill="#fff"/>
  <path id="Caminho_15" data-name="Caminho 15" d="M119.72,355.364a.489.489,0,0,0-.489-.489h-1.707a.489.489,0,0,0-.489.489v1.706a.489.489,0,0,0,.489.489h1.707a.489.489,0,0,0,.489-.489v-1.706Z" transform="translate(-112.107 -339.209)" fill="#fff"/>
  <path id="Caminho_16" data-name="Caminho 16" d="M216.355,355.364a.489.489,0,0,0-.489-.489h-1.707a.489.489,0,0,0-.489.489v1.706a.489.489,0,0,0,.489.489h1.707a.489.489,0,0,0,.489-.489Z" transform="translate(-204.476 -339.209)" fill="#fff"/>
  <path id="Caminho_17" data-name="Caminho 17" d="M312.983,355.364a.489.489,0,0,0-.489-.489h-1.707a.489.489,0,0,0-.489.489v1.706a.489.489,0,0,0,.489.489h1.707a.489.489,0,0,0,.489-.489v-1.706Z" transform="translate(-296.838 -339.209)" fill="#fff"/>
  <path id="Caminho_18" data-name="Caminho 18" d="M24.608,54.151v2.607a2.129,2.129,0,0,1-2.134,2.128H21.127a2.14,2.14,0,0,1-2.147-2.128V54.142H12.913v2.616a2.14,2.14,0,0,1-2.146,2.128H9.421a2.129,2.129,0,0,1-2.134-2.128V54.151a1.94,1.94,0,0,0-1.876,1.93V71.359A1.941,1.941,0,0,0,7.343,73.3H24.552a1.944,1.944,0,0,0,1.932-1.943V56.082A1.94,1.94,0,0,0,24.608,54.151Zm-.625,16.256a.835.835,0,0,1-.835.835H8.71a.835.835,0,0,1-.835-.835V62.516a.835.835,0,0,1,.835-.835H23.147a.835.835,0,0,1,.835.835v7.891Z" transform="translate(-5.411 -51.752)" fill="#fff"/>
  <path id="Caminho_19" data-name="Caminho 19" d="M80.282,5.737h1.332a.731.731,0,0,0,.732-.731V.732A.732.732,0,0,0,81.613,0H80.282a.732.732,0,0,0-.732.732V5.005A.731.731,0,0,0,80.282,5.737Z" transform="translate(-76.277)" fill="#fff"/>
  <path id="Caminho_20" data-name="Caminho 20" d="M345.19,5.737h1.332a.731.731,0,0,0,.732-.731V.732A.732.732,0,0,0,346.521,0H345.19a.732.732,0,0,0-.732.732V5.005A.732.732,0,0,0,345.19,5.737Z" transform="translate(-329.49)" fill="#fff"/>
</svg>
