<svg xmlns="http://www.w3.org/2000/svg" width="20" height="20" viewBox="0 0 20 20">
  <g id="Grupo_164" data-name="Grupo 164" transform="translate(-49 -863)">
    <g id="Caminho_698" data-name="Caminho 698" transform="translate(49 863)" fill="none">
      <path d="M10,0A10,10,0,1,1,0,10,10,10,0,0,1,10,0Z" stroke="none"/>
      <path d="M 10 1.5 C 5.313079833984375 1.5 1.5 5.313079833984375 1.5 10 C 1.5 14.68692016601563 5.313079833984375 18.5 10 18.5 C 14.68692016601563 18.5 18.5 14.68692016601563 18.5 10 C 18.5 5.313079833984375 14.68692016601563 1.5 10 1.5 M 10 0 C 15.52285003662109 0 20 4.477149963378906 20 10 C 20 15.52285003662109 15.52285003662109 20 10 20 C 4.477149963378906 20 0 15.52285003662109 0 10 C 0 4.477149963378906 4.477149963378906 0 10 0 Z" stroke="none" fill="#747474"/>
    </g>
    <text id="_" data-name="?" transform="translate(56.538 876.429)" fill="#747474" font-size="11" font-family="SegoeUI-Bold, Segoe UI" font-weight="700"><tspan x="0" y="0">?</tspan></text>
  </g>
</svg>
