<svg width="164" height="164" viewBox="0 0 164 164" fill="none" xmlns="http://www.w3.org/2000/svg">
<g filter="url(#filter0_d)">
<path d="M141 10H23C15.8203 10 10 15.8203 10 23V141C10 148.18 15.8203 154 23 154H141C148.18 154 154 148.18 154 141V23C154 15.8203 148.18 10 141 10Z" fill="#260633"/>
</g>
<path d="M115.441 61.448C115.488 59.3561 114.978 57.2894 113.962 55.46C113.255 54.1448 112.885 52.6751 112.885 51.182C112.885 49.6889 113.255 48.2191 113.962 46.904C114.978 45.075 115.488 43.0086 115.441 40.917C115.441 40.4086 115.239 39.921 114.88 39.5615C114.52 39.202 114.032 39 113.524 39C113.016 39 112.528 39.202 112.169 39.5615C111.809 39.921 111.607 40.4086 111.607 40.917C111.651 42.4152 111.278 43.8963 110.53 45.195C109.559 47.0413 109.051 49.0962 109.051 51.1825C109.051 53.2688 109.559 55.3237 110.53 57.17C111.237 58.4858 111.607 59.9563 111.607 61.45C111.607 62.9437 111.237 64.4141 110.53 65.73C109.558 67.5771 109.051 69.6329 109.051 71.72C109.051 73.8071 109.558 75.8628 110.53 77.71C111.237 79.0258 111.607 80.4963 111.607 81.99C111.607 83.4837 111.237 84.9541 110.53 86.27C109.558 88.1162 109.051 90.1712 109.051 92.2575C109.051 94.3438 109.558 96.3987 110.53 98.245C111.278 99.5437 111.651 101.025 111.607 102.523C111.607 103.031 111.809 103.519 112.169 103.879C112.528 104.238 113.016 104.44 113.524 104.44C114.032 104.44 114.52 104.238 114.88 103.879C115.239 103.519 115.441 103.031 115.441 102.523C115.488 100.431 114.978 98.365 113.962 96.536C113.255 95.2209 112.885 93.7511 112.885 92.258C112.885 90.7649 113.255 89.2951 113.962 87.98C114.934 86.133 115.442 84.0774 115.442 81.9905C115.442 79.9035 114.934 77.8479 113.962 76.001C113.255 74.6848 112.885 73.214 112.885 71.72C112.885 70.226 113.255 68.7552 113.962 67.439C114.978 65.6089 115.488 63.5415 115.441 61.449V61.448Z" fill="white"/>
<path d="M107.261 40.917C107.261 40.4086 107.059 39.921 106.7 39.5615C106.34 39.202 105.853 39 105.344 39C104.836 39 104.348 39.202 103.989 39.5615C103.629 39.921 103.427 40.4086 103.427 40.917C103.472 42.4152 103.099 43.8963 102.35 45.195C101.379 47.0413 100.871 49.0962 100.871 51.1825C100.871 53.2688 101.379 55.3237 102.35 57.17C103.057 58.4858 103.427 59.9563 103.427 61.45C103.427 62.9437 103.057 64.4142 102.35 65.73C101.379 67.5771 100.871 69.6329 100.871 71.72C100.871 73.807 101.379 75.8628 102.35 77.71C103.057 79.0258 103.427 80.4963 103.427 81.99C103.427 83.4837 103.057 84.9542 102.35 86.27C101.379 88.1162 100.871 90.1712 100.871 92.2575C100.871 94.3438 101.379 96.3987 102.35 98.245C103.099 99.5437 103.471 101.025 103.427 102.523C103.427 103.031 103.629 103.519 103.989 103.879C104.348 104.238 104.836 104.44 105.344 104.44C105.853 104.44 106.34 104.238 106.7 103.879C107.059 103.519 107.261 103.031 107.261 102.523C107.308 100.431 106.798 98.365 105.782 96.536C105.075 95.2209 104.705 93.7511 104.705 92.258C104.705 90.7649 105.075 89.2951 105.782 87.98C106.754 86.1331 107.262 84.0774 107.262 81.9905C107.262 79.9035 106.754 77.8479 105.782 76.001C105.075 74.6848 104.705 73.214 104.705 71.72C104.705 70.2259 105.075 68.7551 105.782 67.439C106.754 65.592 107.262 63.5364 107.262 61.4495C107.262 59.3625 106.754 57.3069 105.782 55.46C105.075 54.1449 104.705 52.6751 104.705 51.182C104.705 49.6889 105.075 48.2191 105.782 46.904C106.798 45.075 107.308 43.0086 107.261 40.917V40.917Z" fill="white"/>
<path d="M99.0818 40.917C99.0818 40.4086 98.8798 39.921 98.5203 39.5615C98.1608 39.202 97.6732 39 97.1648 39C96.6564 39 96.1688 39.202 95.8093 39.5615C95.4498 39.921 95.2478 40.4086 95.2478 40.917C95.292 42.4152 94.9192 43.8963 94.1708 45.195C93.1992 47.0413 92.6915 49.0962 92.6915 51.1825C92.6915 53.2688 93.1992 55.3237 94.1708 57.17C94.8777 58.4858 95.2478 59.9563 95.2478 61.45C95.2478 62.9437 94.8777 64.4142 94.1708 65.73C93.1991 67.5771 92.6914 69.6329 92.6914 71.72C92.6914 73.8071 93.1991 75.8628 94.1708 77.71C94.8777 79.0258 95.2478 80.4963 95.2478 81.99C95.2478 83.4837 94.8777 84.9541 94.1708 86.27C93.1991 88.1162 92.6914 90.1712 92.6914 92.2575C92.6914 94.3438 93.1991 96.3988 94.1708 98.245C94.9191 99.5437 95.292 101.025 95.2478 102.523C95.2478 103.031 95.4498 103.519 95.8093 103.879C96.1688 104.238 96.6564 104.44 97.1648 104.44C97.6732 104.44 98.1608 104.238 98.5203 103.879C98.8798 103.519 99.0818 103.031 99.0818 102.523C99.1288 100.431 98.618 98.3649 97.6018 96.536C96.8951 95.2208 96.5253 93.751 96.5253 92.258C96.5253 90.765 96.8951 89.2952 97.6018 87.98C98.5737 86.1331 99.0815 84.0775 99.0815 81.9905C99.0815 79.9035 98.5737 77.8479 97.6018 76.001C96.895 74.6847 96.5251 73.214 96.5251 71.72C96.5251 70.226 96.895 68.7552 97.6018 67.439C98.5737 65.5921 99.0815 63.5364 99.0815 61.4495C99.0815 59.3625 98.5737 57.3068 97.6018 55.46C96.8951 54.1448 96.5253 52.675 96.5253 51.182C96.5253 49.689 96.8951 48.2192 97.6018 46.904C98.618 45.0751 99.1288 43.0087 99.0818 40.917V40.917Z" fill="white"/>
<path d="M90.4469 81.718C90.8274 81.5798 91.1544 81.3247 91.3809 80.9891C91.6074 80.6536 91.7218 80.255 91.7077 79.8504C91.6936 79.4458 91.5517 79.0561 91.3024 78.7371C91.0531 78.4182 90.7091 78.1864 90.3198 78.0751C90.0712 77.3626 89.7705 76.6693 89.4199 76.001C88.7127 74.6848 88.3426 73.2138 88.3426 71.7195C88.3426 70.2253 88.7127 68.7543 89.4199 67.438C90.3915 65.5911 90.8992 63.5355 90.8992 61.4485C90.8992 59.3616 90.3915 57.306 89.4199 55.459C88.7128 54.144 88.3427 52.6741 88.3427 51.181C88.3427 49.6879 88.7128 48.2181 89.4199 46.9031C90.4356 45.0741 90.9461 43.0076 90.8989 40.9161C90.8989 40.4075 90.6969 39.9198 90.3373 39.5602C89.9777 39.2006 89.4899 38.9985 88.9813 38.9985C88.4728 38.9985 87.9851 39.2006 87.6255 39.5602C87.2659 39.9198 87.0639 40.4075 87.0639 40.9161C87.108 42.4143 86.7352 43.8953 85.987 45.194C85.0154 47.0403 84.5076 49.0952 84.5076 51.1815C84.5076 53.2678 85.0154 55.3228 85.987 57.1691C86.6938 58.4849 87.0636 59.9554 87.0636 61.449C87.0636 62.9427 86.6938 64.4132 85.987 65.7291C85.0155 67.5763 84.5078 69.632 84.5078 71.7191C84.5078 73.8061 85.0155 75.8619 85.987 77.709C86.2101 78.1416 86.4104 78.5855 86.5869 79.0391L82.6409 80.4761C82.4776 78.9048 81.9994 77.3825 81.2349 76.0001C80.5281 74.6838 80.1582 73.2131 80.1582 71.7191C80.1582 70.2251 80.5281 68.7543 81.2349 67.438C82.2065 65.5911 82.7143 63.5355 82.7143 61.4485C82.7143 59.3616 82.2065 57.306 81.2349 55.459C80.5281 54.1439 80.1582 52.6741 80.1582 51.181C80.1582 49.688 80.5281 48.2182 81.2349 46.9031C82.2506 45.0741 82.761 43.0076 82.7139 40.9161C82.7139 40.4077 82.5119 39.9201 82.1524 39.5605C81.7929 39.201 81.3053 38.999 80.7969 38.999C80.2885 38.999 79.8009 39.201 79.4414 39.5605C79.0819 39.9201 78.8799 40.4077 78.8799 40.9161C78.9242 42.4143 78.5513 43.8954 77.8029 45.194C76.8313 47.0403 76.3236 49.0952 76.3236 51.1815C76.3236 53.2678 76.8313 55.3228 77.8029 57.1691C78.5097 58.4849 78.8797 59.9554 78.8797 61.449C78.8797 62.9427 78.5097 64.4132 77.8029 65.7291C76.8312 67.5762 76.3235 69.6319 76.3235 71.7191C76.3235 73.8062 76.8312 75.8619 77.8029 77.709C78.5262 78.9665 78.8976 80.3956 78.878 81.8461L74.4658 83.452C74.5108 82.989 74.534 82.505 74.534 81.991C74.5812 79.8985 74.0707 77.8311 73.055 76.001C72.3482 74.6848 71.9782 73.214 71.9782 71.72C71.9782 70.226 72.3482 68.7553 73.055 67.439C74.0266 65.5921 74.5343 63.5365 74.5343 61.4495C74.5343 59.3626 74.0266 57.307 73.055 55.46C72.3482 54.1449 71.9782 52.6751 71.9782 51.1821C71.9782 49.689 72.3482 48.2192 73.055 46.9041C74.0707 45.0751 74.5812 43.0086 74.534 40.9171C74.534 40.4086 74.3319 39.921 73.9724 39.5615C73.6129 39.202 73.1253 39.0001 72.6168 39.0001C72.1084 39.0001 71.6209 39.202 71.2614 39.5615C70.9019 39.921 70.6999 40.4086 70.6999 40.9171C70.7441 42.4153 70.3713 43.8964 69.6229 45.1951C68.6515 47.0414 68.1438 49.0963 68.1438 51.1826C68.1438 53.2688 68.6515 55.3237 69.6229 57.17C70.33 58.4858 70.7 59.9563 70.7 61.4501C70.7 62.9438 70.33 64.4142 69.6229 65.73C68.6514 67.5772 68.1437 69.633 68.1437 71.72C68.1437 73.8071 68.6514 75.8629 69.6229 77.71C70.3714 79.0098 70.7441 80.4918 70.6999 81.991C70.6999 82.22 70.6929 82.438 70.6819 82.649L61.81 79.42C62.9302 78.3759 63.6786 76.9943 63.9413 75.4856C64.204 73.9769 63.9666 72.4236 63.2652 71.0623C62.5637 69.7009 61.4367 68.606 60.0557 67.9442C58.6746 67.2824 57.1151 67.09 55.6146 67.3962C54.1141 67.7024 52.7548 68.4905 51.7434 69.6404C50.7321 70.7904 50.1242 72.2394 50.0122 73.7667C49.9003 75.2941 50.2905 76.8162 51.1233 78.1013C51.9562 79.3865 53.1861 80.3643 54.6259 80.886L68.0709 85.78L54.6259 90.6741C53.183 91.1953 51.9499 92.1739 51.1146 93.4608C50.2794 94.7476 49.8877 96.2722 49.999 97.8023C50.1104 99.3324 50.7189 100.784 51.7317 101.937C52.7446 103.089 54.1062 103.879 55.6094 104.185C57.1126 104.492 58.6749 104.299 60.0582 103.636C61.4416 102.973 62.5704 101.875 63.2725 100.511C63.9746 99.1472 64.2115 97.591 63.9473 96.0798C63.6831 94.5685 62.9321 93.1851 61.8089 92.1401L73.6759 87.821L89.128 93.4451C89.6004 93.5986 90.1139 93.5628 90.5604 93.3452C91.007 93.1275 91.3515 92.745 91.5216 92.2783C91.6917 91.8116 91.674 91.2971 91.4722 90.8432C91.2704 90.3893 90.9003 90.0314 90.4398 89.845L79.2809 85.7841L90.4469 81.718ZM57.0299 94.0861C57.829 94.0862 58.599 94.3857 59.1881 94.9256C59.7773 95.4655 60.1428 96.2066 60.2124 97.0026C60.2821 97.7987 60.0508 98.592 59.5644 99.226C59.0779 99.8599 58.3716 100.289 57.5846 100.427C56.7977 100.566 55.9873 100.405 55.3133 99.9759C54.6392 99.5466 54.1505 98.8804 53.9435 98.1086C53.7365 97.3367 53.8264 96.5154 54.1952 95.8065C54.564 95.0976 55.1851 94.5526 55.9359 94.2791C56.2857 94.1521 56.6548 94.0871 57.0269 94.087L57.0299 94.0861ZM57.0299 71.0861C57.499 71.0828 57.963 71.1826 58.3892 71.3786C58.8153 71.5746 59.1932 71.8619 59.496 72.2201C59.7988 72.5783 60.0192 72.9987 60.1415 73.4515C60.2638 73.9044 60.2852 74.3785 60.2039 74.8405C60.1226 75.3025 59.9407 75.7409 59.6712 76.1248C59.4016 76.5087 59.051 76.8287 58.6441 77.062C58.2371 77.2953 57.7839 77.4363 57.3164 77.475C56.849 77.5138 56.3786 77.4493 55.9389 77.2861V77.2861C55.2367 77.0255 54.6483 76.5269 54.2759 75.8771C53.9035 75.2273 53.7709 74.4675 53.901 73.7299C54.0312 72.9924 54.4158 72.3239 54.9881 71.8408C55.5603 71.3577 56.2839 71.0906 57.0329 71.0861H57.0299Z" fill="white"/>
<path d="M61.6875 123.831C61.5469 125.034 61.1016 125.963 60.3516 126.62C59.6068 127.271 58.6146 127.596 57.375 127.596C56.0312 127.596 54.9531 127.114 54.1406 126.151C53.3333 125.187 52.9297 123.898 52.9297 122.284V121.19C52.9297 120.133 53.1172 119.203 53.4922 118.401C53.8724 117.599 54.4089 116.984 55.1016 116.557C55.7943 116.125 56.5964 115.909 57.5078 115.909C58.7161 115.909 59.6849 116.247 60.4141 116.924C61.1432 117.596 61.5677 118.528 61.6875 119.721H60.1797C60.0495 118.815 59.7656 118.159 59.3281 117.752C58.8958 117.346 58.2891 117.143 57.5078 117.143C56.5495 117.143 55.7969 117.497 55.25 118.206C54.7083 118.914 54.4375 119.922 54.4375 121.229V122.331C54.4375 123.565 54.6953 124.547 55.2109 125.276C55.7266 126.005 56.4479 126.37 57.375 126.37C58.2083 126.37 58.8464 126.182 59.2891 125.807C59.737 125.427 60.0339 124.768 60.1797 123.831H61.6875ZM70.0234 124.471H65.2578L64.1875 127.44H62.6406L66.9844 116.065H68.2969L72.6484 127.44H71.1094L70.0234 124.471ZM65.7109 123.237H69.5781L67.6406 117.917L65.7109 123.237ZM74.1797 127.44V116.065H77.8984C79.1328 116.065 80.0599 116.32 80.6797 116.831C81.3047 117.341 81.6172 118.096 81.6172 119.096C81.6172 119.627 81.4661 120.099 81.1641 120.51C80.862 120.917 80.4505 121.232 79.9297 121.456C80.5443 121.627 81.0286 121.956 81.3828 122.44C81.7422 122.919 81.9219 123.492 81.9219 124.159C81.9219 125.18 81.5911 125.982 80.9297 126.565C80.2682 127.148 79.3333 127.44 78.125 127.44H74.1797ZM75.6797 122.12V126.213H78.1562C78.8542 126.213 79.4036 126.034 79.8047 125.674C80.2109 125.31 80.4141 124.81 80.4141 124.174C80.4141 122.805 79.6693 122.12 78.1797 122.12H75.6797ZM75.6797 120.917H77.9453C78.6016 120.917 79.125 120.752 79.5156 120.424C79.9115 120.096 80.1094 119.651 80.1094 119.088C80.1094 118.463 79.9271 118.01 79.5625 117.729C79.1979 117.443 78.6432 117.299 77.8984 117.299H75.6797V120.917ZM90.5781 122.182H85.6484V126.213H91.375V127.44H84.1484V116.065H91.2969V117.299H85.6484V120.956H90.5781V122.182ZM94.75 126.213H100.141V127.44H93.2422V116.065H94.75V126.213ZM110.086 122.12C110.086 123.234 109.898 124.208 109.523 125.042C109.148 125.87 108.617 126.502 107.93 126.94C107.242 127.377 106.44 127.596 105.523 127.596C104.628 127.596 103.833 127.377 103.141 126.94C102.448 126.497 101.909 125.87 101.523 125.057C101.143 124.239 100.948 123.294 100.938 122.221V121.401C100.938 120.307 101.128 119.341 101.508 118.502C101.888 117.664 102.424 117.023 103.117 116.581C103.815 116.133 104.612 115.909 105.508 115.909C106.419 115.909 107.221 116.13 107.914 116.573C108.612 117.01 109.148 117.648 109.523 118.487C109.898 119.32 110.086 120.292 110.086 121.401V122.12ZM108.594 121.385C108.594 120.036 108.323 119.002 107.781 118.284C107.24 117.56 106.482 117.198 105.508 117.198C104.56 117.198 103.812 117.56 103.266 118.284C102.724 119.002 102.445 120.002 102.43 121.284V122.12C102.43 123.427 102.703 124.456 103.25 125.206C103.802 125.95 104.56 126.323 105.523 126.323C106.492 126.323 107.242 125.971 107.773 125.268C108.305 124.56 108.578 123.547 108.594 122.229V121.385Z" fill="white"/>
<defs>
<filter id="filter0_d" x="0" y="0" width="164" height="164" filterUnits="userSpaceOnUse" color-interpolation-filters="sRGB">
<feFlood flood-opacity="0" result="BackgroundImageFix"/>
<feColorMatrix in="SourceAlpha" type="matrix" values="0 0 0 0 0 0 0 0 0 0 0 0 0 0 0 0 0 0 127 0" result="hardAlpha"/>
<feOffset/>
<feGaussianBlur stdDeviation="5"/>
<feColorMatrix type="matrix" values="0 0 0 0 0 0 0 0 0 0 0 0 0 0 0 0 0 0 0.373 0"/>
<feBlend mode="normal" in2="BackgroundImageFix" result="effect1_dropShadow"/>
<feBlend mode="normal" in="SourceGraphic" in2="effect1_dropShadow" result="shape"/>
</filter>
</defs>
</svg>
