<svg xmlns="http://www.w3.org/2000/svg" width="20" height="20" viewBox="0 0 20 20">
  <g id="Grupo_165" data-name="Grupo 165" transform="translate(-49 -922.401)">
    <path id="Caminho_694" data-name="Caminho 694" d="M1092.39,733.345a4.781,4.781,0,1,0,4.781,4.781,4.786,4.786,0,0,0-4.781-4.781Zm0,8.367a3.586,3.586,0,1,1,3.586-3.586,3.59,3.59,0,0,1-3.586,3.586Zm0,0" transform="translate(-1033.39 194.275)" fill="#747474"/>
    <path id="Caminho_695" data-name="Caminho 695" d="M973.529,607.459l-1.537-.334a8.369,8.369,0,0,0-.495-1.193l.851-1.324a.6.6,0,0,0-.08-.746l-2.395-2.395a.6.6,0,0,0-.746-.08l-1.324.851a8.369,8.369,0,0,0-1.193-.495l-.334-1.537a.6.6,0,0,0-.584-.471h-3.387a.6.6,0,0,0-.584.471l-.334,1.537a8.369,8.369,0,0,0-1.193.495l-1.324-.851a.6.6,0,0,0-.746.08l-2.395,2.395a.6.6,0,0,0-.08.746l.851,1.324a8.369,8.369,0,0,0-.495,1.193l-1.537.334a.6.6,0,0,0-.471.584v3.387a.6.6,0,0,0,.471.584l1.537.334a8.369,8.369,0,0,0,.495,1.193l-.851,1.324a.6.6,0,0,0,.08.746L958.126,618a.6.6,0,0,0,.746.08l1.324-.851a8.369,8.369,0,0,0,1.193.495l.334,1.537a.6.6,0,0,0,.584.471h3.387a.6.6,0,0,0,.584-.471l.334-1.537a8.369,8.369,0,0,0,1.193-.495l1.324.851a.6.6,0,0,0,.746-.08l2.395-2.395a.6.6,0,0,0,.08-.746l-.851-1.324a8.369,8.369,0,0,0,.495-1.193l1.537-.334a.6.6,0,0,0,.471-.584v-3.387a.6.6,0,0,0-.471-.584Zm-.725,3.489-1.409.306a.6.6,0,0,0-.449.423,7.168,7.168,0,0,1-.662,1.6.6.6,0,0,0,.018.617l.78,1.214-1.713,1.714-1.214-.78a.6.6,0,0,0-.617-.018,7.174,7.174,0,0,1-1.6.662.6.6,0,0,0-.423.449l-.306,1.409h-2.423l-.306-1.409a.6.6,0,0,0-.423-.449,7.171,7.171,0,0,1-1.6-.662.6.6,0,0,0-.617.018l-1.214.78-1.713-1.714.78-1.214a.6.6,0,0,0,.018-.617,7.18,7.18,0,0,1-.662-1.6.6.6,0,0,0-.449-.423l-1.41-.306v-2.423l1.409-.306a.6.6,0,0,0,.449-.423,7.168,7.168,0,0,1,.662-1.6.6.6,0,0,0-.018-.617l-.78-1.214,1.713-1.714,1.214.78a.6.6,0,0,0,.617.018,7.171,7.171,0,0,1,1.6-.662.6.6,0,0,0,.423-.449l.306-1.409h2.423l.306,1.409a.6.6,0,0,0,.423.449,7.168,7.168,0,0,1,1.6.662.6.6,0,0,0,.617-.018l1.214-.78,1.713,1.714-.78,1.214a.6.6,0,0,0-.018.617,7.171,7.171,0,0,1,.662,1.6.6.6,0,0,0,.449.423l1.41.306Zm0,0" transform="translate(-905 322.665)" fill="#747474"/>
  </g>
</svg>
