<svg width="164" height="164" viewBox="0 0 164 164" fill="none" xmlns="http://www.w3.org/2000/svg">
<g filter="url(#filter0_d)">
<path d="M141 10H23C15.8203 10 10 15.8203 10 23V141C10 148.18 15.8203 154 23 154H141C148.18 154 154 148.18 154 141V23C154 15.8203 148.18 10 141 10Z" fill="#260633"/>
</g>
<path d="M37.3203 125.942V114.567H40.5312C41.5208 114.567 42.3958 114.786 43.1562 115.223C43.9167 115.661 44.5026 116.283 44.9141 117.09C45.3307 117.898 45.5417 118.825 45.5469 119.872V120.598C45.5469 121.671 45.3385 122.611 44.9219 123.419C44.5104 124.226 43.9193 124.846 43.1484 125.278C42.3828 125.71 41.4896 125.932 40.4688 125.942H37.3203ZM38.8203 115.801V124.715H40.3984C41.5547 124.715 42.4531 124.356 43.0938 123.637C43.7396 122.919 44.0625 121.895 44.0625 120.567V119.903C44.0625 118.611 43.7578 117.609 43.1484 116.895C42.5443 116.176 41.6849 115.812 40.5703 115.801H38.8203ZM54.25 120.684H49.3203V124.715H55.0469V125.942H47.8203V114.567H54.9688V115.801H49.3203V119.458H54.25V120.684ZM58.4141 121.489V125.942H56.9141V114.567H61.1094C62.3542 114.567 63.3281 114.885 64.0312 115.52C64.7396 116.156 65.0938 116.997 65.0938 118.044C65.0938 119.148 64.7474 119.999 64.0547 120.598C63.3672 121.192 62.3802 121.489 61.0938 121.489H58.4141ZM58.4141 120.262H61.1094C61.9115 120.262 62.526 120.075 62.9531 119.7C63.3802 119.32 63.5938 118.773 63.5938 118.059C63.5938 117.382 63.3802 116.84 62.9531 116.434C62.526 116.028 61.9401 115.817 61.1953 115.801H58.4141V120.262ZM68.6172 125.942H67.1172V114.567H68.6172V125.942ZM72.875 124.715H78.2656V125.942H71.3672V114.567H72.875V124.715ZM86.4141 122.973H81.6484L80.5781 125.942H79.0312L83.375 114.567H84.6875L89.0391 125.942H87.5L86.4141 122.973ZM82.1016 121.739H85.9688L84.0312 116.419L82.1016 121.739ZM98.8438 122.333C98.7031 123.536 98.2578 124.465 97.5078 125.122C96.763 125.773 95.7708 126.098 94.5312 126.098C93.1875 126.098 92.1094 125.616 91.2969 124.653C90.4896 123.689 90.0859 122.4 90.0859 120.786V119.692C90.0859 118.635 90.2734 117.705 90.6484 116.903C91.0286 116.101 91.5651 115.486 92.2578 115.059C92.9505 114.627 93.7526 114.411 94.6641 114.411C95.8724 114.411 96.8411 114.749 97.5703 115.426C98.2995 116.098 98.724 117.031 98.8438 118.223H97.3359C97.2057 117.317 96.9219 116.661 96.4844 116.255C96.0521 115.848 95.4453 115.645 94.6641 115.645C93.7057 115.645 92.9531 115.999 92.4062 116.708C91.8646 117.416 91.5938 118.424 91.5938 119.731V120.833C91.5938 122.067 91.8516 123.049 92.3672 123.778C92.8828 124.507 93.6042 124.872 94.5312 124.872C95.3646 124.872 96.0026 124.684 96.4453 124.309C96.8932 123.929 97.1901 123.27 97.3359 122.333H98.8438ZM95.0234 126.012L94.9297 126.419C95.7266 126.559 96.125 127.01 96.125 127.77C96.125 128.275 95.9167 128.674 95.5 128.965C95.0833 129.262 94.5026 129.411 93.7578 129.411L93.7031 128.575C94.1146 128.575 94.4323 128.507 94.6562 128.372C94.8854 128.236 95 128.046 95 127.801C95 127.572 94.9167 127.403 94.75 127.294C94.5833 127.184 94.2448 127.106 93.7344 127.059L93.9844 126.012H95.0234ZM107.18 122.973H102.414L101.344 125.942H99.7969L104.141 114.567H105.453L109.805 125.942H108.266L107.18 122.973ZM102.867 121.739H106.734L104.797 116.419L102.867 121.739ZM107.602 111.77C107.602 112.333 107.44 112.788 107.117 113.137C106.799 113.486 106.401 113.661 105.922 113.661C105.708 113.661 105.523 113.635 105.367 113.583C105.211 113.531 105.005 113.424 104.75 113.262C104.5 113.101 104.318 113.005 104.203 112.973C104.094 112.937 103.966 112.919 103.82 112.919C103.607 112.919 103.424 113.002 103.273 113.169C103.122 113.33 103.047 113.538 103.047 113.794L102.078 113.739C102.078 113.182 102.234 112.721 102.547 112.356C102.865 111.991 103.266 111.809 103.75 111.809C103.932 111.809 104.096 111.835 104.242 111.887C104.388 111.939 104.586 112.041 104.836 112.192C105.086 112.343 105.276 112.442 105.406 112.489C105.542 112.536 105.69 112.559 105.852 112.559C106.076 112.559 106.26 112.471 106.406 112.294C106.557 112.116 106.633 111.911 106.633 111.676L107.602 111.77ZM119.992 120.622C119.992 121.736 119.805 122.71 119.43 123.544C119.055 124.372 118.523 125.005 117.836 125.442C117.148 125.88 116.346 126.098 115.43 126.098C114.534 126.098 113.74 125.88 113.047 125.442C112.354 124.999 111.815 124.372 111.43 123.559C111.049 122.741 110.854 121.796 110.844 120.723V119.903C110.844 118.809 111.034 117.843 111.414 117.005C111.794 116.166 112.331 115.525 113.023 115.083C113.721 114.635 114.518 114.411 115.414 114.411C116.326 114.411 117.128 114.632 117.82 115.075C118.518 115.512 119.055 116.15 119.43 116.989C119.805 117.822 119.992 118.794 119.992 119.903V120.622ZM118.5 119.887C118.5 118.538 118.229 117.505 117.688 116.786C117.146 116.062 116.388 115.7 115.414 115.7C114.466 115.7 113.719 116.062 113.172 116.786C112.63 117.505 112.352 118.505 112.336 119.786V120.622C112.336 121.929 112.609 122.958 113.156 123.708C113.708 124.452 114.466 124.825 115.43 124.825C116.398 124.825 117.148 124.473 117.68 123.77C118.211 123.062 118.484 122.049 118.5 120.731V119.887Z" fill="white"/>
<path d="M57.1833 102.175H101.87C104.024 102.172 106.089 101.315 107.612 99.7914C109.135 98.2681 109.992 96.2031 109.995 94.049V91.771C114.495 89.31 136.076 77.287 154.841 62.808C155.01 62.6776 155.152 62.5153 155.258 62.3302C155.365 62.1451 155.433 61.9409 155.461 61.7292C155.488 61.5176 155.473 61.3026 155.418 61.0966C155.362 60.8905 155.266 60.6975 155.136 60.5285C155.006 60.3595 154.843 60.2178 154.658 60.1115C154.473 60.0052 154.269 59.9365 154.057 59.9092C153.845 59.8818 153.63 59.8964 153.424 59.9521C153.218 60.0079 153.025 60.1037 152.856 60.234C132.114 76.24 107.848 89.239 107.605 89.368C107.461 89.4868 107.317 89.6058 107.173 89.725C107.109 89.8045 107.051 89.8899 107.002 89.98C106.946 90.0662 106.898 90.1573 106.858 90.252C106.824 90.3614 106.802 90.474 106.79 90.588C106.771 90.6583 106.756 90.7297 106.746 90.802V94.05C106.744 95.3424 106.23 96.5812 105.316 97.4952C104.402 98.4091 103.164 98.9236 101.871 98.926H62.2974C62.67 98.167 62.8659 97.3335 62.8704 96.488C62.8704 96.057 62.6992 95.6437 62.3944 95.3389C62.0897 95.0342 61.6763 94.863 61.2454 94.863C60.8144 94.863 60.4011 95.0342 60.0963 95.3389C59.7916 95.6437 59.6204 96.057 59.6204 96.488C59.6207 96.9242 59.5039 97.3526 59.2822 97.7284C59.0606 98.1042 58.7421 98.4136 58.3601 98.6243C57.9781 98.8351 57.5466 98.9395 57.1105 98.9267C56.6744 98.9139 56.2498 98.7842 55.8809 98.5513C55.5119 98.3184 55.2123 97.9908 55.0132 97.6027C54.814 97.2145 54.7227 96.78 54.7487 96.3445C54.7746 95.909 54.917 95.4884 55.1609 95.1267C55.4048 94.765 55.7413 94.4754 56.1353 94.288L97.5983 77.688C97.8021 77.6046 97.9874 77.4816 98.1433 77.326L104.175 71.29L111.067 78.179C111.218 78.3304 111.397 78.4505 111.595 78.5325C111.792 78.6145 112.004 78.6567 112.217 78.6567C112.431 78.6567 112.643 78.6145 112.84 78.5325C113.037 78.4505 113.217 78.3304 113.367 78.179L128.291 63.256L128.309 63.24L151.286 40.263C151.591 39.9579 151.762 39.5443 151.762 39.113C151.762 38.6817 151.591 38.2681 151.286 37.963L144.392 31.063L155.019 20.437C155.324 20.132 155.496 19.7183 155.496 19.287C155.496 18.8557 155.324 18.442 155.019 18.137C154.714 17.832 154.301 17.6606 153.869 17.6606C153.438 17.6606 153.024 17.832 152.719 18.137L142.097 28.76C141.946 28.6087 141.767 28.4886 141.57 28.4067C141.372 28.3248 141.161 28.2827 140.947 28.2827C140.734 28.2827 140.522 28.3248 140.325 28.4067C140.127 28.4886 139.948 28.6087 139.797 28.76L116.812 51.748C115.287 53.2689 113.221 54.123 111.067 54.123C108.913 54.123 106.847 53.2689 105.322 51.748C105.171 51.597 104.992 51.4772 104.795 51.3954C104.597 51.3137 104.386 51.2717 104.172 51.2717C103.959 51.2717 103.747 51.3137 103.55 51.3954C103.353 51.4772 103.173 51.597 103.022 51.748C102.871 51.899 102.752 52.0783 102.67 52.2756C102.588 52.473 102.546 52.6844 102.546 52.898C102.546 53.1116 102.588 53.3231 102.67 53.5204C102.752 53.7177 102.871 53.897 103.022 54.048L109.917 60.941L103.03 67.833C103.03 67.833 103.03 67.833 103.022 67.833C103.014 67.833 103.022 67.839 103.015 67.841L96.0763 74.785L54.8594 91.29C54.8454 91.296 54.8374 91.307 54.8234 91.314C54.8094 91.321 54.7913 91.32 54.7783 91.326C53.6047 91.8727 52.6528 92.8034 52.0797 93.9644C51.5067 95.1253 51.3468 96.447 51.6266 97.7111C51.9064 98.9752 52.609 100.106 53.6184 100.917C54.6278 101.727 55.8837 102.17 57.1783 102.17L57.1833 102.175ZM111.066 57.375C112.56 57.3778 114.04 57.0853 115.421 56.5143C116.801 55.9434 118.056 55.1052 119.111 54.048L140.945 32.215L147.836 39.107L125.995 60.947C125.241 61.701 124.346 62.2989 123.361 62.7067C122.376 63.1144 121.32 63.324 120.254 63.3235C119.188 63.3229 118.132 63.1122 117.148 62.7034C116.163 62.2946 115.268 61.6957 114.515 60.941L110.938 57.364C110.977 57.364 111.021 57.372 111.061 57.372L111.066 57.375ZM112.219 63.242C113.272 64.3027 114.525 65.1438 115.906 65.7166C117.286 66.2894 118.767 66.5825 120.261 66.579C120.3 66.579 120.339 66.574 120.379 66.572L112.217 74.734L106.474 68.991L112.219 63.242Z" fill="white"/>
<defs>
<filter id="filter0_d" x="0" y="0" width="164" height="164" filterUnits="userSpaceOnUse" color-interpolation-filters="sRGB">
<feFlood flood-opacity="0" result="BackgroundImageFix"/>
<feColorMatrix in="SourceAlpha" type="matrix" values="0 0 0 0 0 0 0 0 0 0 0 0 0 0 0 0 0 0 127 0" result="hardAlpha"/>
<feOffset/>
<feGaussianBlur stdDeviation="5"/>
<feColorMatrix type="matrix" values="0 0 0 0 0 0 0 0 0 0 0 0 0 0 0 0 0 0 0.373 0"/>
<feBlend mode="normal" in2="BackgroundImageFix" result="effect1_dropShadow"/>
<feBlend mode="normal" in="SourceGraphic" in2="effect1_dropShadow" result="shape"/>
</filter>
</defs>
</svg>
