<svg width="164" height="164" viewBox="0 0 164 164" fill="none" xmlns="http://www.w3.org/2000/svg">
<g filter="url(#filter0_d)">
<path d="M142 10H22C15.3726 10 10 15.3726 10 22V142C10 148.627 15.3726 154 22 154H142C148.627 154 154 148.627 154 142V22C154 15.3726 148.627 10 142 10Z" fill="#260633"/>
</g>
<path d="M46.2578 115.625L49.9766 124.906L53.6953 115.625H55.6406V127H54.1406V122.57L54.2812 117.789L50.5469 127H49.3984L45.6719 117.812L45.8203 122.57V127H44.3203V115.625H46.2578ZM64.7109 124.031H59.9453L58.875 127H57.3281L61.6719 115.625H62.9844L67.3359 127H65.7969L64.7109 124.031ZM60.3984 122.797H64.2656L62.3281 117.477L60.3984 122.797ZM71.7578 121.711L70.3672 123.156V127H68.8672V115.625H70.3672V121.25L75.4219 115.625H77.2344L72.7578 120.648L77.5859 127H75.7891L71.7578 121.711ZM85.3281 121.742H80.3984V125.773H86.125V127H78.8984V115.625H86.0469V116.859H80.3984V120.516H85.3281V121.742ZM99.9688 115.625V123.359C99.9635 124.432 99.625 125.31 98.9531 125.992C98.2865 126.674 97.3802 127.057 96.2344 127.141L95.8359 127.156C94.5911 127.156 93.599 126.82 92.8594 126.148C92.1198 125.477 91.7448 124.552 91.7344 123.375V115.625H93.2188V123.328C93.2188 124.151 93.4453 124.792 93.8984 125.25C94.3516 125.703 94.9974 125.93 95.8359 125.93C96.6849 125.93 97.3333 125.703 97.7812 125.25C98.2344 124.797 98.4609 124.159 98.4609 123.336V115.625H99.9688ZM103.836 122.547V127H102.336V115.625H106.531C107.776 115.625 108.75 115.943 109.453 116.578C110.161 117.214 110.516 118.055 110.516 119.102C110.516 120.206 110.169 121.057 109.477 121.656C108.789 122.25 107.802 122.547 106.516 122.547H103.836ZM103.836 121.32H106.531C107.333 121.32 107.948 121.133 108.375 120.758C108.802 120.378 109.016 119.831 109.016 119.117C109.016 118.44 108.802 117.898 108.375 117.492C107.948 117.086 107.362 116.875 106.617 116.859H103.836V121.32Z" fill="white"/>
<path d="M74.6914 70.9009C73.9428 71.648 72.9285 72.0675 71.8709 72.0675C70.8134 72.0675 69.799 71.648 69.0504 70.9009C68.7709 70.6214 68.3918 70.4644 67.9964 70.4644C67.6011 70.4644 67.222 70.6214 66.9424 70.9009C66.6629 71.1805 66.5059 71.5596 66.5059 71.9549C66.5059 72.3503 66.6629 72.7294 66.9424 73.0089C68.2504 74.314 70.0227 75.047 71.8704 75.047C73.7182 75.047 75.4904 74.314 76.7984 73.0089C76.9368 72.8706 77.0467 72.7063 77.1216 72.5255C77.1965 72.3448 77.2351 72.151 77.2352 71.9553C77.2352 71.7596 77.1967 71.5658 77.1219 71.385C77.047 71.2042 76.9373 71.0398 76.7989 70.9014C76.6606 70.763 76.4963 70.6532 76.3156 70.5783C76.1348 70.5033 75.941 70.4647 75.7453 70.4647C75.5496 70.4646 75.3558 70.5032 75.175 70.578C74.9942 70.6529 74.8299 70.7626 74.6914 70.9009V70.9009Z" fill="white"/>
<path d="M97.4434 70.9009C96.6948 71.648 95.6804 72.0675 94.6229 72.0675C93.5653 72.0675 92.551 71.648 91.8024 70.9009C91.664 70.7625 91.4997 70.6527 91.3188 70.5778C91.138 70.5029 90.9442 70.4644 90.7484 70.4644C90.5527 70.4644 90.3588 70.5029 90.178 70.5778C89.9971 70.6527 89.8328 70.7625 89.6944 70.9009C89.556 71.0394 89.4462 71.2037 89.3713 71.3845C89.2964 71.5654 89.2578 71.7592 89.2578 71.9549C89.2578 72.1507 89.2964 72.3445 89.3713 72.5254C89.4462 72.7062 89.556 72.8705 89.6944 73.0089C91.0024 74.314 92.7747 75.047 94.6224 75.047C96.4701 75.047 98.2424 74.314 99.5504 73.0089C99.83 72.7295 99.987 72.3505 99.9871 71.9553C99.9872 71.5601 99.8303 71.181 99.5509 70.9014C99.2715 70.6219 98.8925 70.4648 98.4973 70.4647C98.102 70.4646 97.7229 70.6215 97.4434 70.9009V70.9009Z" fill="white"/>
<path d="M90.0441 97.4559C87.8939 98.6112 85.6139 99.5064 83.2521 100.123C76.6773 98.4075 70.858 94.5581 66.707 89.1786C62.556 83.799 60.3082 77.1938 60.3161 70.3989V68.4989L60.9591 68.3529C69.4817 66.4104 77.5945 62.9788 84.9241 58.2159C87.4097 61.4558 90.6075 64.0803 94.2701 65.8862C97.9326 67.692 101.962 68.6308 106.045 68.6299H106.216V70.3899C106.213 75.4572 104.961 80.4455 102.569 84.9129C102.477 85.0853 102.419 85.2743 102.399 85.469C102.38 85.6638 102.399 85.8605 102.455 86.0478C102.512 86.2352 102.604 86.4097 102.728 86.5612C102.852 86.7127 103.005 86.8383 103.177 86.9309C103.35 87.0235 103.539 87.0812 103.733 87.1008C103.928 87.1203 104.125 87.1013 104.312 87.0449C104.499 86.9884 104.674 86.8956 104.825 86.7717C104.977 86.6478 105.103 86.4953 105.195 86.3229C106.307 84.2489 107.197 82.064 107.852 79.8039H108.552C109.4 79.8039 110.239 79.6367 111.022 79.312C111.806 78.9872 112.517 78.5111 113.116 77.9111C113.715 77.3111 114.189 76.5988 114.513 75.8151C114.836 75.0315 115.002 74.1917 115 73.3439L114.993 69.5689C114.987 67.9752 114.392 66.44 113.322 65.2586C112.252 64.0772 110.783 63.333 109.198 63.1689V60.8289C109.198 56.6915 108.207 52.6144 106.308 48.9383C104.41 45.2623 101.659 42.0942 98.2851 39.6989C97.7272 36.1161 95.9069 32.8508 93.1527 30.4923C90.3986 28.1339 86.8921 26.8376 83.2661 26.8376C79.6401 26.8376 76.1336 28.1339 73.3795 30.4923C70.6253 32.8508 68.805 36.1161 68.2471 39.6989C64.874 42.0941 62.1233 45.2619 60.2249 48.9376C58.3266 52.6132 57.3357 56.69 57.3351 60.8269V63.1639C55.7419 63.3191 54.263 64.0603 53.1853 65.2439C52.1075 66.4275 51.5077 67.9692 51.5021 69.5699L51.4961 73.3479C51.4945 74.1957 51.6601 75.0355 51.9835 75.8191C52.3068 76.6028 52.7815 77.3151 53.3804 77.9151C53.9793 78.5151 54.6907 78.9912 55.4738 79.3159C56.2569 79.6407 57.0963 79.8079 57.9441 79.8079H58.6661C60.3075 85.4739 63.4093 90.6089 67.6607 94.6983C71.9121 98.7877 77.1637 101.688 82.8891 103.108C83.1255 103.167 83.3727 103.167 83.6091 103.108L83.6341 103.102C86.3554 102.424 88.9817 101.409 91.4521 100.082C91.8002 99.8948 92.0597 99.5771 92.1735 99.1986C92.2874 98.8202 92.2462 98.412 92.0591 98.0639C91.872 97.7158 91.5543 97.4563 91.1758 97.3425C90.7974 97.2286 90.3892 97.2698 90.0411 97.4569L90.0441 97.4559ZM112.012 69.5749L112.019 73.3499C112.021 74.2669 111.659 75.1473 111.013 75.7982C110.368 76.4492 109.49 76.8176 108.573 76.8229C108.987 74.7036 109.196 72.5493 109.198 70.3899V66.1769C109.988 66.33 110.7 66.7524 111.214 67.3721C111.727 67.9918 112.009 68.7703 112.012 69.5749V69.5749ZM83.2661 29.8289C85.7112 29.8252 88.101 30.5563 90.1256 31.9273C92.1501 33.2983 93.716 35.2461 94.6201 37.5179C91.0836 35.7929 87.2004 34.8964 83.2656 34.8964C79.3308 34.8964 75.4477 35.7929 71.9111 37.5179C72.8153 35.2459 74.3813 33.2981 76.406 31.927C78.4308 30.556 80.8208 29.825 83.2661 29.8289V29.8289ZM83.2661 37.8769C89.3509 37.8835 95.1846 40.3036 99.4872 44.6061C103.79 48.9086 106.21 54.7421 106.217 60.8269V65.6479H106.046C102.449 65.649 98.8988 64.8289 95.6665 63.2502C92.4341 61.6714 89.6048 59.3757 87.3941 56.5379C88.4261 55.8046 89.4381 55.0473 90.4301 54.2659C90.5836 54.1445 90.7117 53.9941 90.8071 53.8231C90.9025 53.6522 90.9632 53.4642 90.9859 53.2698C91.0086 53.0754 90.9928 52.8784 90.9394 52.6902C90.886 52.5019 90.796 52.3259 90.6746 52.1724C90.5532 52.0189 90.4027 51.8908 90.2318 51.7954C90.0609 51.7001 89.8729 51.6393 89.6785 51.6166C89.4841 51.5939 89.2871 51.6097 89.0988 51.6631C88.9105 51.7165 88.7346 51.8065 88.5811 51.9279C80.2791 58.4739 70.6239 63.0896 60.3161 65.4399V60.8269C60.3227 54.7421 62.7428 48.9085 67.0453 44.6058C71.3478 40.3031 77.1813 37.8828 83.2661 37.8759V37.8769ZM57.9441 76.8239C57.4881 76.8239 57.0365 76.7339 56.6153 76.5592C56.194 76.3844 55.8114 76.1282 55.4894 75.8053C55.1673 75.4824 54.9121 75.0991 54.7384 74.6774C54.5647 74.2558 54.4759 73.804 54.4771 73.3479L54.4841 69.5729C54.4871 68.7617 54.7739 67.977 55.2949 67.3551C55.8158 66.7332 56.5379 66.3132 57.3361 66.1679V70.3969C57.3354 72.5532 57.5403 74.7046 57.9481 76.8219L57.9441 76.8239Z" fill="white"/>
<path d="M93.4998 51.191C93.8658 51.1912 94.2191 51.0563 94.4918 50.812L94.5128 50.794C94.6587 50.6636 94.7776 50.5057 94.8625 50.3294C94.9475 50.153 94.9969 49.9617 95.0079 49.7663C95.0189 49.5709 94.9913 49.3752 94.9267 49.1904C94.8621 49.0057 94.7617 48.8355 94.6313 48.6895C94.5009 48.5435 94.343 48.4247 94.1667 48.3397C93.9903 48.2548 93.799 48.2054 93.6036 48.1944C93.4081 48.1834 93.2125 48.211 93.0277 48.2756C92.843 48.3402 92.6727 48.4406 92.5268 48.571L92.5058 48.589C92.281 48.7902 92.1227 49.055 92.0516 49.3482C91.9806 49.6414 92.0003 49.9493 92.108 50.2311C92.2157 50.5129 92.4065 50.7553 92.655 50.9264C92.9035 51.0974 93.1981 51.189 93.4998 51.189V51.191Z" fill="white"/>
<path d="M101.761 88.5389L98.5949 80.2609C98.3576 79.6408 97.9109 79.1232 97.3321 78.798C96.7533 78.4727 96.079 78.3601 95.4259 78.4798C92.6703 78.9925 90.1344 80.3272 88.1517 82.3084C86.1691 84.2896 84.8325 86.8246 84.3179 89.5799L84.3119 89.6149C84.198 90.2542 84.3052 90.9134 84.6158 91.4837C84.9264 92.0541 85.422 92.5017 86.0209 92.7529L94.1449 96.1189L100.736 102.71C101.015 102.989 101.395 103.146 101.79 103.146C102.185 103.146 102.564 102.989 102.844 102.71C103.123 102.43 103.281 102.051 103.281 101.656C103.281 101.261 103.123 100.881 102.844 100.602L97.0969 94.8548L100.481 91.4709L107.881 98.8709C108.16 99.1504 108.54 99.3075 108.935 99.3075C109.33 99.3075 109.709 99.1504 109.989 98.8709C110.268 98.5913 110.425 98.2122 110.425 97.8169C110.425 97.4215 110.268 97.0424 109.989 96.7629L101.761 88.5389ZM95.8519 81.4328L98.7459 88.9979L94.6459 93.0979L87.2699 90.0419C87.6827 87.9164 88.7196 85.9622 90.2482 84.4288C91.7768 82.8954 93.7278 81.8523 95.8519 81.4328Z" fill="white"/>
<path d="M112.775 100.17C112.43 100.17 112.096 100.289 111.829 100.508C111.562 100.727 111.379 101.031 111.312 101.37C111.245 101.708 111.296 102.059 111.459 102.363C111.622 102.668 111.885 102.906 112.203 103.038C112.522 103.17 112.876 103.188 113.207 103.088C113.537 102.988 113.822 102.776 114.014 102.49C114.205 102.203 114.292 101.859 114.258 101.515C114.224 101.172 114.073 100.851 113.829 100.607C113.548 100.329 113.17 100.172 112.775 100.17V100.17Z" fill="white"/>
<defs>
<filter id="filter0_d" x="0" y="0" width="164" height="164" filterUnits="userSpaceOnUse" color-interpolation-filters="sRGB">
<feFlood flood-opacity="0" result="BackgroundImageFix"/>
<feColorMatrix in="SourceAlpha" type="matrix" values="0 0 0 0 0 0 0 0 0 0 0 0 0 0 0 0 0 0 127 0" result="hardAlpha"/>
<feOffset/>
<feGaussianBlur stdDeviation="5"/>
<feColorMatrix type="matrix" values="0 0 0 0 0 0 0 0 0 0 0 0 0 0 0 0 0 0 0.373 0"/>
<feBlend mode="normal" in2="BackgroundImageFix" result="effect1_dropShadow"/>
<feBlend mode="normal" in="SourceGraphic" in2="effect1_dropShadow" result="shape"/>
</filter>
</defs>
</svg>
