<svg width="164" height="164" viewBox="0 0 164 164" fill="none" xmlns="http://www.w3.org/2000/svg">
<g filter="url(#filter0_d)">
<path d="M141 10H23C15.8203 10 10 15.8203 10 23V141C10 148.18 15.8203 154 23 154H141C148.18 154 154 148.18 154 141V23C154 15.8203 148.18 10 141 10Z" fill="#260633"/>
</g>
<path d="M45.011 102.176H40.011C40.002 102.019 39.998 101.869 39.998 101.729C39.9985 99.9317 40.6488 98.1953 41.829 96.8399C42.9935 95.4991 44.5979 94.6177 46.3541 94.3539C45.4477 92.8242 44.9693 91.0789 44.9691 89.3009C44.972 86.6647 46.0205 84.1374 47.8845 82.2734C49.7486 80.4093 52.2759 79.3608 54.912 79.3579C56.8127 79.3635 58.6723 79.9117 60.2721 80.9379C61.8719 81.9641 63.1454 83.4257 63.9431 85.1509C64.9939 84.6079 66.1602 84.3259 67.3431 84.3289H70.5871C69.981 82.6149 70.0219 80.7385 70.7022 79.0526C71.3825 77.3667 72.6552 75.9873 74.2811 75.1739L82.454 71.0869L90.2001 59.4689H90.1411H90.0411C87.4049 59.466 84.8776 58.4175 83.0135 56.5535C81.1495 54.6894 80.101 52.1621 80.0981 49.5259C80.1021 46.8901 81.1513 44.3635 83.0156 42.5002C84.88 40.637 87.4073 39.5893 90.0431 39.5869C92.6792 39.5898 95.2066 40.6383 97.0706 42.5024C98.9347 44.3664 99.9832 46.8938 99.9861 49.5299C99.9856 51.3073 99.5073 53.0519 98.6011 54.5809C100.182 54.8124 101.645 55.5491 102.772 56.6809C106.436 60.3297 109.382 64.6348 111.455 69.3719C113.519 74.0977 114.676 79.1696 114.865 84.3229H117.385C119.362 84.3253 121.257 85.1117 122.655 86.5096C124.053 87.9076 124.84 89.8029 124.842 91.7799V102.168H119.87V91.7869C119.869 91.1281 119.607 90.4965 119.141 90.0306C118.676 89.5648 118.044 89.3027 117.385 89.3019H95.0141V102.177H90.0431V99.2449H47.4601C46.8013 99.2457 46.1697 99.5078 45.7038 99.9736C45.2379 100.439 44.9759 101.071 44.9751 101.73C44.975 101.88 44.9884 102.029 45.0151 102.177L45.011 102.176ZM67.3411 89.2989C66.6822 89.2997 66.0506 89.5618 65.5848 90.0276C65.1189 90.4935 64.8569 91.1251 64.8561 91.7839C64.8569 92.4428 65.1189 93.0744 65.5848 93.5402C66.0506 94.0061 66.6822 94.2681 67.3411 94.2689H90.0411V89.2979L67.3411 89.2989ZM54.9131 84.3269C53.5948 84.3282 52.3309 84.8525 51.3988 85.7847C50.4667 86.7168 49.9424 87.9806 49.9411 89.2989C49.9427 90.617 50.4671 91.8806 51.3992 92.8126C52.3313 93.7445 53.595 94.2686 54.9131 94.2699C56.2311 94.2686 57.4947 93.7445 58.4266 92.8125C59.3586 91.8805 59.8828 90.6169 59.8841 89.2989C59.8828 87.9808 59.3586 86.7171 58.4267 85.785C57.4948 84.8529 56.2312 84.3285 54.9131 84.3269V84.3269ZM97.5031 59.4709C97.0935 59.4699 96.69 59.5703 96.3287 59.7631C95.9673 59.9559 95.6593 60.2352 95.4321 60.5759L86.222 74.3929C85.9816 74.7528 85.6514 75.0437 85.2641 75.2369L76.5021 79.6189C75.9128 79.9141 75.4647 80.4311 75.256 81.0563C75.0474 81.6815 75.0952 82.3639 75.3891 82.9539C75.5954 83.368 75.9135 83.7161 76.3074 83.9588C76.7014 84.2015 77.1554 84.329 77.618 84.3269C78.0028 84.3273 78.3823 84.2376 78.7261 84.0649L88.6651 79.0959C89.0523 78.9017 89.3824 78.6102 89.623 78.2499L95.8231 68.9409C96.0499 68.6004 96.3574 68.3212 96.7182 68.1282C97.079 67.9353 97.4819 67.8345 97.8911 67.8349H97.9111C98.3237 67.8371 98.7292 67.9426 99.0908 68.1415C99.4523 68.3404 99.7583 68.6266 99.9811 68.9739C102.935 73.5741 104.634 78.867 104.909 84.3269H109.885C109.695 79.8272 108.668 75.4024 106.854 71.2799C105.032 67.1461 102.454 63.3885 99.2541 60.1999C99.0248 59.9688 98.752 59.7854 98.4515 59.6603C98.1509 59.5352 97.8286 59.4708 97.5031 59.4709V59.4709ZM97.683 75.1229L93.761 81.0059C93.0405 82.0862 92.051 82.9602 90.8901 83.5419L89.3181 84.3269H99.9341C99.746 81.1494 98.9833 78.0323 97.683 75.1269V75.1229ZM90.0421 44.5569C88.724 44.5585 87.4604 45.0829 86.5284 46.015C85.5965 46.9471 85.0724 48.2109 85.071 49.5289C85.0724 50.8469 85.5965 52.1105 86.5285 53.0425C87.4605 53.9744 88.7241 54.4986 90.0421 54.4999C91.36 54.4986 92.6237 53.9744 93.5557 53.0425C94.4876 52.1105 95.0117 50.8469 95.0131 49.5289C95.0115 48.2112 94.4874 46.9479 93.5557 46.016C92.624 45.0841 91.3608 44.5598 90.0431 44.5579L90.0421 44.5569Z" fill="white"/>
<path d="M39.2578 114.567L42.9766 123.848L46.6953 114.567H48.6406V125.942H47.1406V121.512L47.2812 116.731L43.5469 125.942H42.3984L38.6719 116.754L38.8203 121.512V125.942H37.3203V114.567H39.2578ZM57.7109 122.973H52.9453L51.875 125.942H50.3281L54.6719 114.567H55.9844L60.3359 125.942H58.7969L57.7109 122.973ZM53.3984 121.739H57.2656L55.3281 116.418L53.3984 121.739ZM65.2188 120.872C63.9323 120.502 62.9948 120.049 62.4062 119.512C61.8229 118.971 61.5312 118.304 61.5312 117.512C61.5312 116.616 61.888 115.877 62.6016 115.293C63.3203 114.705 64.2526 114.411 65.3984 114.411C66.1797 114.411 66.875 114.562 67.4844 114.864C68.099 115.166 68.5729 115.583 68.9062 116.114C69.2448 116.645 69.4141 117.226 69.4141 117.856H67.9062C67.9062 117.168 67.6875 116.629 67.25 116.239C66.8125 115.843 66.1953 115.645 65.3984 115.645C64.6589 115.645 64.0807 115.809 63.6641 116.137C63.2526 116.46 63.0469 116.911 63.0469 117.489C63.0469 117.952 63.2422 118.346 63.6328 118.668C64.0286 118.986 64.6979 119.278 65.6406 119.543C66.5885 119.809 67.3281 120.103 67.8594 120.426C68.3958 120.744 68.7917 121.116 69.0469 121.543C69.3073 121.971 69.4375 122.473 69.4375 123.051C69.4375 123.973 69.0781 124.713 68.3594 125.27C67.6406 125.822 66.6797 126.098 65.4766 126.098C64.6953 126.098 63.9661 125.95 63.2891 125.653C62.612 125.351 62.0885 124.939 61.7188 124.418C61.3542 123.898 61.1719 123.306 61.1719 122.645H62.6797C62.6797 123.333 62.9323 123.877 63.4375 124.278C63.9479 124.674 64.6276 124.872 65.4766 124.872C66.2682 124.872 66.875 124.71 67.2969 124.387C67.7188 124.064 67.9297 123.624 67.9297 123.067C67.9297 122.51 67.7344 122.08 67.3438 121.778C66.9531 121.471 66.2448 121.168 65.2188 120.872ZM74.7188 120.872C73.4323 120.502 72.4948 120.049 71.9062 119.512C71.3229 118.971 71.0312 118.304 71.0312 117.512C71.0312 116.616 71.388 115.877 72.1016 115.293C72.8203 114.705 73.7526 114.411 74.8984 114.411C75.6797 114.411 76.375 114.562 76.9844 114.864C77.599 115.166 78.0729 115.583 78.4062 116.114C78.7448 116.645 78.9141 117.226 78.9141 117.856H77.4062C77.4062 117.168 77.1875 116.629 76.75 116.239C76.3125 115.843 75.6953 115.645 74.8984 115.645C74.1589 115.645 73.5807 115.809 73.1641 116.137C72.7526 116.46 72.5469 116.911 72.5469 117.489C72.5469 117.952 72.7422 118.346 73.1328 118.668C73.5286 118.986 74.1979 119.278 75.1406 119.543C76.0885 119.809 76.8281 120.103 77.3594 120.426C77.8958 120.744 78.2917 121.116 78.5469 121.543C78.8073 121.971 78.9375 122.473 78.9375 123.051C78.9375 123.973 78.5781 124.713 77.8594 125.27C77.1406 125.822 76.1797 126.098 74.9766 126.098C74.1953 126.098 73.4661 125.95 72.7891 125.653C72.112 125.351 71.5885 124.939 71.2188 124.418C70.8542 123.898 70.6719 123.306 70.6719 122.645H72.1797C72.1797 123.333 72.4323 123.877 72.9375 124.278C73.4479 124.674 74.1276 124.872 74.9766 124.872C75.7682 124.872 76.375 124.71 76.7969 124.387C77.2188 124.064 77.4297 123.624 77.4297 123.067C77.4297 122.51 77.2344 122.08 76.8438 121.778C76.4531 121.471 75.7448 121.168 74.7188 120.872ZM87.1484 122.973H82.3828L81.3125 125.942H79.7656L84.1094 114.567H85.4219L89.7734 125.942H88.2344L87.1484 122.973ZM82.8359 121.739H86.7031L84.7656 116.418L82.8359 121.739ZM99.6094 124.45C99.224 125.002 98.6849 125.416 97.9922 125.692C97.3047 125.963 96.5026 126.098 95.5859 126.098C94.6589 126.098 93.8359 125.882 93.1172 125.45C92.3984 125.012 91.8411 124.392 91.4453 123.59C91.0547 122.788 90.8542 121.859 90.8438 120.801V119.809C90.8438 118.096 91.2422 116.767 92.0391 115.825C92.8411 114.882 93.9661 114.411 95.4141 114.411C96.6016 114.411 97.5573 114.715 98.2812 115.325C99.0052 115.929 99.4479 116.788 99.6094 117.903H98.1094C97.8281 116.398 96.9323 115.645 95.4219 115.645C94.4167 115.645 93.6536 115.999 93.1328 116.708C92.6172 117.411 92.3568 118.431 92.3516 119.77V120.7C92.3516 121.976 92.6432 122.991 93.2266 123.747C93.8099 124.497 94.599 124.872 95.5938 124.872C96.1562 124.872 96.6484 124.809 97.0703 124.684C97.4922 124.559 97.8411 124.348 98.1172 124.051V121.497H95.4844V120.278H99.6094V124.45ZM108.547 120.684H103.617V124.715H109.344V125.942H102.117V114.567H109.266V115.801H103.617V119.458H108.547V120.684ZM113.148 114.567L116.867 123.848L120.586 114.567H122.531V125.942H121.031V121.512L121.172 116.731L117.438 125.942H116.289L112.562 116.754L112.711 121.512V125.942H111.211V114.567H113.148Z" fill="white"/>
<defs>
<filter id="filter0_d" x="0" y="0" width="164" height="164" filterUnits="userSpaceOnUse" color-interpolation-filters="sRGB">
<feFlood flood-opacity="0" result="BackgroundImageFix"/>
<feColorMatrix in="SourceAlpha" type="matrix" values="0 0 0 0 0 0 0 0 0 0 0 0 0 0 0 0 0 0 127 0" result="hardAlpha"/>
<feOffset/>
<feGaussianBlur stdDeviation="5"/>
<feColorMatrix type="matrix" values="0 0 0 0 0 0 0 0 0 0 0 0 0 0 0 0 0 0 0.373 0"/>
<feBlend mode="normal" in2="BackgroundImageFix" result="effect1_dropShadow"/>
<feBlend mode="normal" in="SourceGraphic" in2="effect1_dropShadow" result="shape"/>
</filter>
</defs>
</svg>
