<svg xmlns="http://www.w3.org/2000/svg" width="18" height="17.998" viewBox="0 0 18 17.998">
  <g id="Grupo_178" data-name="Grupo 178" transform="translate(127.676 181)">
    <path id="Caminho_727" data-name="Caminho 727" d="M-126.411-181h8.789a.606.606,0,0,0,.1.035,2.226,2.226,0,0,1,1.836,2.049c.028.526.013,1.054.014,1.581,0,.31.007.622-.014.931a.713.713,0,0,1-.62.644.744.744,0,0,1-.87-.791c-.006-.709,0-1.418,0-2.127a.743.743,0,0,0-.82-.814h-3.129c-.048,0-.1.005-.145.008a1.693,1.693,0,0,1,1.108,1.819c-.018,3.55-.008,7.1-.008,10.652v.238a.4.4,0,0,0,.071.018c.744,0,1.488.007,2.232,0a.637.637,0,0,0,.6-.395,1.232,1.232,0,0,0,.09-.475c.008-.943,0-1.887.006-2.83a.757.757,0,0,1,.742-.795.74.74,0,0,1,.756.741c.009,1.066.026,2.133-.014,3.2a2.212,2.212,0,0,1-2.18,2.065c-.609,0-1.219,0-1.828,0h-.473c0,.25,0,.483,0,.716a1.5,1.5,0,0,1-2.045,1.44q-2.2-.729-4.4-1.465a1.5,1.5,0,0,1-1.05-1.411q0-6.776,0-13.552a1.417,1.417,0,0,1,.79-1.3A3.429,3.429,0,0,1-126.411-181Z" transform="translate(0)" fill="#747474"/>
    <path id="Caminho_728" data-name="Caminho 728" d="M-30.447-142.9a4.26,4.26,0,0,1-.387.531c-.925.939-1.859,1.868-2.793,2.8a.752.752,0,0,1-1.121.015.744.744,0,0,1-.2-.528c0-.732,0-1.464,0-2.225h-.191q-1.379,0-2.759,0a.762.762,0,0,1-.777-.561.743.743,0,0,1,.714-.943c.931,0,1.863,0,2.794,0h.218V-144c0-.674,0-1.347,0-2.021a.722.722,0,0,1,.455-.724.719.719,0,0,1,.839.17q1.493,1.489,2.98,2.985a2.008,2.008,0,0,1,.226.346Z" transform="translate(-79.23 -30.439)" fill="#747474"/>
  </g>
</svg>
