<svg width="164" height="164" viewBox="0 0 164 164" fill="none" xmlns="http://www.w3.org/2000/svg">
<g filter="url(#filter0_d)">
<path d="M141 10H23C15.8203 10 10 15.8203 10 23V141C10 148.18 15.8203 154 23 154H141C148.18 154 154 148.18 154 141V23C154 15.8203 148.18 10 141 10Z" fill="#260633"/>
</g>
<path d="M26.1719 102.93C24.8854 102.56 23.9479 102.107 23.3594 101.57C22.776 101.029 22.4844 100.362 22.4844 99.5703C22.4844 98.6745 22.8411 97.9349 23.5547 97.3516C24.2734 96.763 25.2057 96.4688 26.3516 96.4688C27.1328 96.4688 27.8281 96.6198 28.4375 96.9219C29.0521 97.224 29.526 97.6406 29.8594 98.1719C30.1979 98.7031 30.3672 99.2839 30.3672 99.9141H28.8594C28.8594 99.2266 28.6406 98.6875 28.2031 98.2969C27.7656 97.901 27.1484 97.7031 26.3516 97.7031C25.612 97.7031 25.0339 97.8672 24.6172 98.1953C24.2057 98.5182 24 98.9688 24 99.5469C24 100.01 24.1953 100.404 24.5859 100.727C24.9818 101.044 25.651 101.336 26.5938 101.602C27.5417 101.867 28.2812 102.161 28.8125 102.484C29.349 102.802 29.7448 103.174 30 103.602C30.2604 104.029 30.3906 104.531 30.3906 105.109C30.3906 106.031 30.0312 106.771 29.3125 107.328C28.5938 107.88 27.6328 108.156 26.4297 108.156C25.6484 108.156 24.9193 108.008 24.2422 107.711C23.5651 107.409 23.0417 106.997 22.6719 106.477C22.3073 105.956 22.125 105.365 22.125 104.703H23.6328C23.6328 105.391 23.8854 105.935 24.3906 106.336C24.901 106.732 25.5807 106.93 26.4297 106.93C27.2214 106.93 27.8281 106.768 28.25 106.445C28.6719 106.122 28.8828 105.682 28.8828 105.125C28.8828 104.568 28.6875 104.138 28.2969 103.836C27.9062 103.529 27.1979 103.227 26.1719 102.93ZM41.0703 102.68C41.0703 103.794 40.8828 104.768 40.5078 105.602C40.1328 106.43 39.6016 107.062 38.9141 107.5C38.2266 107.938 37.4245 108.156 36.5078 108.156C35.612 108.156 34.8177 107.938 34.125 107.5C33.4323 107.057 32.8932 106.43 32.5078 105.617C32.1276 104.799 31.9323 103.854 31.9219 102.781V101.961C31.9219 100.867 32.112 99.901 32.4922 99.0625C32.8724 98.224 33.4089 97.5833 34.1016 97.1406C34.7995 96.6927 35.5964 96.4688 36.4922 96.4688C37.4036 96.4688 38.2057 96.6901 38.8984 97.1328C39.5964 97.5703 40.1328 98.2083 40.5078 99.0469C40.8828 99.8802 41.0703 100.852 41.0703 101.961V102.68ZM39.5781 101.945C39.5781 100.596 39.3073 99.5625 38.7656 98.8438C38.224 98.1198 37.4661 97.7578 36.4922 97.7578C35.5443 97.7578 34.7969 98.1198 34.25 98.8438C33.7083 99.5625 33.4297 100.562 33.4141 101.844V102.68C33.4141 103.987 33.6875 105.016 34.2344 105.766C34.7865 106.51 35.5443 106.883 36.5078 106.883C37.4766 106.883 38.2266 106.531 38.7578 105.828C39.2891 105.12 39.5625 104.107 39.5781 102.789V101.945ZM43.3203 108V96.625H47.0391C48.2734 96.625 49.2005 96.8802 49.8203 97.3906C50.4453 97.901 50.7578 98.6562 50.7578 99.6562C50.7578 100.188 50.6068 100.659 50.3047 101.07C50.0026 101.477 49.5911 101.792 49.0703 102.016C49.6849 102.188 50.1693 102.516 50.5234 103C50.8828 103.479 51.0625 104.052 51.0625 104.719C51.0625 105.74 50.7318 106.542 50.0703 107.125C49.4089 107.708 48.474 108 47.2656 108H43.3203ZM44.8203 102.68V106.773H47.2969C47.9948 106.773 48.5443 106.594 48.9453 106.234C49.3516 105.87 49.5547 105.37 49.5547 104.734C49.5547 103.365 48.8099 102.68 47.3203 102.68H44.8203ZM44.8203 101.477H47.0859C47.7422 101.477 48.2656 101.312 48.6562 100.984C49.0521 100.656 49.25 100.211 49.25 99.6484C49.25 99.0234 49.0677 98.5703 48.7031 98.2891C48.3385 98.0026 47.7839 97.8594 47.0391 97.8594H44.8203V101.477ZM57.4609 103.398H54.7891V108H53.2812V96.625H57.0469C58.3281 96.625 59.3125 96.9167 60 97.5C60.6927 98.0833 61.0391 98.9323 61.0391 100.047C61.0391 100.755 60.8464 101.372 60.4609 101.898C60.0807 102.424 59.5495 102.818 58.8672 103.078L61.5391 107.906V108H59.9297L57.4609 103.398ZM54.7891 102.172H57.0938C57.8385 102.172 58.4297 101.979 58.8672 101.594C59.3099 101.208 59.5312 100.693 59.5312 100.047C59.5312 99.3438 59.3203 98.8047 58.8984 98.4297C58.4818 98.0547 57.8776 97.8646 57.0859 97.8594H54.7891V102.172ZM69.4297 105.031H64.6641L63.5938 108H62.0469L66.3906 96.625H67.7031L72.0547 108H70.5156L69.4297 105.031ZM65.1172 103.797H68.9844L67.0469 98.4766L65.1172 103.797ZM82.3281 108H80.8203L75.0938 99.2344V108H73.5859V96.625H75.0938L80.8359 105.43V96.625H82.3281V108ZM93.3594 104.391C93.2188 105.594 92.7734 106.523 92.0234 107.18C91.2786 107.831 90.2865 108.156 89.0469 108.156C87.7031 108.156 86.625 107.674 85.8125 106.711C85.0052 105.747 84.6016 104.458 84.6016 102.844V101.75C84.6016 100.693 84.7891 99.763 85.1641 98.9609C85.5443 98.1589 86.0807 97.5443 86.7734 97.1172C87.4661 96.6849 88.2682 96.4688 89.1797 96.4688C90.388 96.4688 91.3568 96.8073 92.0859 97.4844C92.8151 98.1562 93.2396 99.0885 93.3594 100.281H91.8516C91.7214 99.375 91.4375 98.7188 91 98.3125C90.5677 97.9062 89.9609 97.7031 89.1797 97.7031C88.2214 97.7031 87.4688 98.0573 86.9219 98.7656C86.3802 99.474 86.1094 100.482 86.1094 101.789V102.891C86.1094 104.125 86.3672 105.107 86.8828 105.836C87.3984 106.565 88.1198 106.93 89.0469 106.93C89.8802 106.93 90.5182 106.742 90.9609 106.367C91.4089 105.987 91.7057 105.328 91.8516 104.391H93.3594ZM101.844 102.742H96.9141V106.773H102.641V108H95.4141V96.625H102.562V97.8594H96.9141V101.516H101.844V102.742ZM106.016 106.773H111.406V108H104.508V96.625H106.016V106.773ZM121.859 108H120.352V102.742H114.617V108H113.117V96.625H114.617V101.516H120.352V96.625H121.859V108ZM130.945 105.031H126.18L125.109 108H123.562L127.906 96.625H129.219L133.57 108H132.031L130.945 105.031ZM126.633 103.797H130.5L128.562 98.4766L126.633 103.797Z" fill="white"/>
<path d="M100.831 68.379C97.4109 65.5667 93.4506 63.4852 89.1947 62.2627C84.9388 61.0402 80.4776 60.7027 76.0862 61.271L54.2172 64.083C52.3779 64.3234 50.6982 65.2526 49.5171 66.6829C48.336 68.1133 47.7413 69.9384 47.8532 71.79C47.9238 72.9341 48.2627 74.0456 48.8423 75.0346C49.422 76.0236 50.2261 76.8623 51.1899 77.483C52.1536 78.1037 53.2499 78.489 54.39 78.6076C55.5302 78.7263 56.6823 78.575 57.7532 78.166C66.7545 74.9805 75.9506 72.3751 85.2852 70.366C88.4517 69.9146 91.678 70.1383 94.752 71.0222C97.826 71.9062 100.678 73.4305 103.121 75.495L113.621 84.062L116.157 80.962L100.831 68.379Z" fill="white"/>
<defs>
<filter id="filter0_d" x="0" y="0" width="164" height="164" filterUnits="userSpaceOnUse" color-interpolation-filters="sRGB">
<feFlood flood-opacity="0" result="BackgroundImageFix"/>
<feColorMatrix in="SourceAlpha" type="matrix" values="0 0 0 0 0 0 0 0 0 0 0 0 0 0 0 0 0 0 127 0" result="hardAlpha"/>
<feOffset/>
<feGaussianBlur stdDeviation="5"/>
<feColorMatrix type="matrix" values="0 0 0 0 0 0 0 0 0 0 0 0 0 0 0 0 0 0 0.373 0"/>
<feBlend mode="normal" in2="BackgroundImageFix" result="effect1_dropShadow"/>
<feBlend mode="normal" in="SourceGraphic" in2="effect1_dropShadow" result="shape"/>
</filter>
</defs>
</svg>
