<svg width="164" height="164" viewBox="0 0 164 164" fill="none" xmlns="http://www.w3.org/2000/svg">
<g filter="url(#filter0_d)">
<path d="M141 10H23C15.8203 10 10 15.8203 10 23V141C10 148.18 15.8203 154 23 154H141C148.18 154 154 148.18 154 141V23C154 15.8203 148.18 10 141 10Z" fill="#260633"/>
</g>
<path d="M59.6151 104.037H48.0681C47.7847 104.037 47.513 103.924 47.3126 103.724C47.1122 103.524 46.9996 103.252 46.9996 102.969C46.9996 102.685 47.1122 102.413 47.3126 102.213C47.513 102.013 47.7847 101.9 48.0681 101.9H59.6151C66.6281 101.9 71.9422 101.071 75.8612 99.3661C78.9711 98.0994 81.5845 95.8555 83.3071 92.973H70.5991C66.5111 92.973 63.3232 89.5011 62.8992 84.7591H48.0652C47.7817 84.7591 47.5097 84.6464 47.3092 84.4459C47.1087 84.2455 46.9961 83.9735 46.9961 83.69C46.9961 83.4065 47.1087 83.1346 47.3092 82.9341C47.5097 82.7336 47.7817 82.6211 48.0652 82.6211H63.9211C66.3528 82.6751 68.77 82.235 71.0266 81.3274C73.2832 80.4198 75.3321 79.0637 77.0492 77.341L84.9321 69.3271L80.2821 64.646C80.1595 64.5226 80.069 64.3711 80.0183 64.2047C79.9676 64.0383 79.9583 63.8621 79.9912 63.6912C80.0241 63.5204 80.0982 63.3603 80.2072 63.2246C80.3161 63.089 80.4564 62.9821 80.6161 62.9131C81.6161 62.4811 82.5592 62.075 83.4602 61.688C87.0064 60.2545 90.473 58.6315 93.8451 56.826C93.9676 56.7514 94.1038 56.7021 94.2457 56.6812C94.3876 56.6603 94.5322 56.6682 94.671 56.7043C94.8098 56.7405 94.9399 56.8042 95.0536 56.8916C95.1672 56.9791 95.2622 57.0886 95.3326 57.2135C95.4031 57.3384 95.4478 57.4762 95.4639 57.6187C95.48 57.7613 95.4672 57.9056 95.4264 58.0431C95.3856 58.1805 95.3175 58.3084 95.2262 58.419C95.1349 58.5297 95.0224 58.6208 94.8951 58.687C91.4562 60.5318 87.92 62.1892 84.3021 63.652L82.9021 64.252L94.6022 76.034C99.6072 64.534 102.343 59.134 111.445 50.034L117.234 44.245C117.416 44.063 117.558 43.8446 117.649 43.604C117.741 43.3635 117.781 43.1063 117.766 42.8493C117.752 42.5923 117.683 42.3413 117.564 42.1128C117.446 41.8842 117.281 41.6832 117.079 41.523C116.711 41.2489 116.256 41.1181 115.799 41.1549C115.342 41.1917 114.913 41.3936 114.594 41.723L108.805 47.512C105.693 50.7397 102.3 53.6846 98.6671 56.312C98.4346 56.4653 98.1515 56.5217 97.8779 56.4693C97.6044 56.417 97.3621 56.2599 97.2026 56.0316C97.0431 55.8033 96.979 55.5218 97.0239 55.247C97.0689 54.9721 97.2192 54.7257 97.4431 54.56C100.973 52.0032 104.27 49.1387 107.294 46L113.082 40.211C113.444 39.83 113.878 39.5248 114.36 39.3132C114.841 39.1016 115.359 38.9877 115.885 38.9783C116.41 38.9689 116.932 39.0641 117.421 39.2583C117.909 39.4526 118.354 39.742 118.729 40.1098C119.105 40.4776 119.404 40.9165 119.608 41.4007C119.812 41.885 119.918 42.405 119.92 42.9306C119.921 43.4562 119.818 43.9769 119.616 44.4623C119.415 44.9477 119.119 45.3881 118.745 45.758L112.956 51.5481C103.756 60.7481 101.239 66.083 95.9352 78.331C95.8658 78.4913 95.7582 78.6321 95.6218 78.7411C95.4855 78.8502 95.3244 78.9242 95.1528 78.9566C94.9813 78.9891 94.8044 78.979 94.6376 78.9273C94.4708 78.8756 94.3193 78.7839 94.1962 78.6601L89.4452 73.877C88.1872 75.151 85.1452 78.232 81.5452 81.83L80.7522 82.622H89.1931C89.8389 82.6226 90.4581 82.8791 90.915 83.3353C91.372 83.7915 91.6295 84.4103 91.6311 85.0561C91.6675 86.9137 91.1521 88.7404 90.1501 90.305C89.6671 91.0485 89.0211 91.6724 88.2612 92.1292C87.5013 92.5861 86.6474 92.8641 85.7642 92.942C81.7532 100.712 73.8781 104.042 59.6091 104.042L59.6151 104.037ZM65.0502 84.73C65.4032 87.836 67.3361 90.836 70.5981 90.836H85.1122C85.7615 90.8524 86.4041 90.7013 86.978 90.3972C87.552 90.0932 88.038 89.6464 88.3892 89.1C89.1442 87.8881 89.5298 86.4825 89.4991 85.055C89.4991 84.9755 89.4675 84.8992 89.4113 84.8429C89.355 84.7867 89.2787 84.755 89.1991 84.755H78.6191C75.9361 87.435 74.6831 88.681 74.6661 88.697C74.5667 88.7959 74.4487 88.8742 74.319 88.9275C74.1892 88.9808 74.0502 89.008 73.9099 89.0076C73.7696 89.0072 73.6309 88.9791 73.5015 88.9251C73.372 88.871 73.2545 88.792 73.1556 88.6925C73.0568 88.5931 72.9785 88.475 72.9252 88.3453C72.8719 88.2156 72.8447 88.0766 72.8451 87.9364C72.8455 87.7961 72.8735 87.6573 72.9276 87.5279C72.9817 87.3984 73.0607 87.2809 73.1602 87.182C73.1802 87.162 75.1002 85.254 79.2842 81.07L77.7981 79.583C74.2767 82.7282 69.7692 84.5476 65.0511 84.7281L65.0502 84.73ZM79.3181 78.084L80.7952 79.5611C84.0702 76.2821 86.7891 73.532 87.9471 72.361L86.4421 70.8451L79.3181 78.084Z" fill="white"/>
<path d="M62.3281 116.065V123.799C62.3229 124.872 61.9844 125.75 61.3125 126.432C60.6458 127.114 59.7396 127.497 58.5938 127.581L58.1953 127.596C56.9505 127.596 55.9583 127.26 55.2188 126.588C54.4792 125.917 54.1042 124.992 54.0938 123.815V116.065H55.5781V123.768C55.5781 124.591 55.8047 125.232 56.2578 125.69C56.7109 126.143 57.3568 126.37 58.1953 126.37C59.0443 126.37 59.6927 126.143 60.1406 125.69C60.5938 125.237 60.8203 124.599 60.8203 123.776V116.065H62.3281ZM73.4375 127.44H71.9297L66.2031 118.674V127.44H64.6953V116.065H66.2031L71.9453 124.87V116.065H73.4375V127.44ZM84.8438 127.44H83.3359V122.182H77.6016V127.44H76.1016V116.065H77.6016V120.956H83.3359V116.065H84.8438V127.44ZM93.9297 124.471H89.1641L88.0938 127.44H86.5469L90.8906 116.065H92.2031L96.5547 127.44H95.0156L93.9297 124.471ZM89.6172 123.237H93.4844L91.5469 117.917L89.6172 123.237ZM101.438 122.37C100.151 122 99.2135 121.547 98.625 121.01C98.0417 120.469 97.75 119.802 97.75 119.01C97.75 118.114 98.1068 117.375 98.8203 116.792C99.5391 116.203 100.471 115.909 101.617 115.909C102.398 115.909 103.094 116.06 103.703 116.362C104.318 116.664 104.792 117.081 105.125 117.612C105.464 118.143 105.633 118.724 105.633 119.354H104.125C104.125 118.667 103.906 118.127 103.469 117.737C103.031 117.341 102.414 117.143 101.617 117.143C100.878 117.143 100.299 117.307 99.8828 117.635C99.4714 117.958 99.2656 118.409 99.2656 118.987C99.2656 119.45 99.4609 119.844 99.8516 120.167C100.247 120.484 100.917 120.776 101.859 121.042C102.807 121.307 103.547 121.601 104.078 121.924C104.615 122.242 105.01 122.614 105.266 123.042C105.526 123.469 105.656 123.971 105.656 124.549C105.656 125.471 105.297 126.211 104.578 126.768C103.859 127.32 102.898 127.596 101.695 127.596C100.914 127.596 100.185 127.448 99.5078 127.151C98.8307 126.849 98.3073 126.437 97.9375 125.917C97.5729 125.396 97.3906 124.805 97.3906 124.143H98.8984C98.8984 124.831 99.151 125.375 99.6562 125.776C100.167 126.172 100.846 126.37 101.695 126.37C102.487 126.37 103.094 126.208 103.516 125.885C103.938 125.562 104.148 125.122 104.148 124.565C104.148 124.008 103.953 123.578 103.562 123.276C103.172 122.969 102.464 122.667 101.438 122.37Z" fill="white"/>
<defs>
<filter id="filter0_d" x="0" y="0" width="164" height="164" filterUnits="userSpaceOnUse" color-interpolation-filters="sRGB">
<feFlood flood-opacity="0" result="BackgroundImageFix"/>
<feColorMatrix in="SourceAlpha" type="matrix" values="0 0 0 0 0 0 0 0 0 0 0 0 0 0 0 0 0 0 127 0" result="hardAlpha"/>
<feOffset/>
<feGaussianBlur stdDeviation="5"/>
<feColorMatrix type="matrix" values="0 0 0 0 0 0 0 0 0 0 0 0 0 0 0 0 0 0 0.373 0"/>
<feBlend mode="normal" in2="BackgroundImageFix" result="effect1_dropShadow"/>
<feBlend mode="normal" in="SourceGraphic" in2="effect1_dropShadow" result="shape"/>
</filter>
</defs>
</svg>
