<svg xmlns="http://www.w3.org/2000/svg" width="17.98" height="21.551" viewBox="0 0 17.98 21.551">
  <g id="Grupo_160" data-name="Grupo 160" transform="translate(-48 -363)">
    <path id="Caminho_679" data-name="Caminho 679" d="M274.423,25.032a5.192,5.192,0,0,0,5.191-5.191,5.191,5.191,0,1,0-8.861,3.67,5.024,5.024,0,0,0,3.67,1.52Zm-2.777-7.968a3.928,3.928,0,0,1,6.7,2.777,3.928,3.928,0,1,1-6.7-2.777Zm0,0" transform="translate(-217.569 348.349)" fill="#fff"/>
    <path id="Caminho_680" data-name="Caminho 680" d="M217.543,218.665a12.832,12.832,0,0,0-.175-1.362,10.712,10.712,0,0,0-.335-1.369,6.774,6.774,0,0,0-.563-1.277,4.809,4.809,0,0,0-.848-1.106,3.742,3.742,0,0,0-1.219-.766,4.212,4.212,0,0,0-1.556-.282,1.579,1.579,0,0,0-.844.358c-.253.165-.549.356-.879.567a5.033,5.033,0,0,1-1.137.5,4.414,4.414,0,0,1-2.782,0,5.016,5.016,0,0,1-1.136-.5c-.327-.209-.623-.4-.88-.567a1.58,1.58,0,0,0-.843-.358,4.208,4.208,0,0,0-1.556.282,3.738,3.738,0,0,0-1.219.766,4.814,4.814,0,0,0-.848,1.106,6.776,6.776,0,0,0-.563,1.277,10.7,10.7,0,0,0-.335,1.369,12.733,12.733,0,0,0-.175,1.362c-.029.411-.043.84-.043,1.273a3.579,3.579,0,0,0,1.063,2.707,3.826,3.826,0,0,0,2.739,1h10.377a3.827,3.827,0,0,0,2.739-1,3.578,3.578,0,0,0,1.063-2.708c0-.434-.015-.863-.044-1.273Zm-1.89,3.066a2.576,2.576,0,0,1-1.868.651H203.408a2.575,2.575,0,0,1-1.868-.651,2.337,2.337,0,0,1-.671-1.792c0-.4.013-.8.04-1.185a11.471,11.471,0,0,1,.158-1.227,9.463,9.463,0,0,1,.295-1.207,5.507,5.507,0,0,1,.458-1.038,3.567,3.567,0,0,1,.624-.817,2.477,2.477,0,0,1,.811-.5,2.9,2.9,0,0,1,.995-.192c.044.023.123.068.251.151.26.169.559.362.889.574a6.269,6.269,0,0,0,1.427.638,5.677,5.677,0,0,0,3.559,0,6.268,6.268,0,0,0,1.428-.638c.339-.216.63-.4.889-.573.128-.083.206-.128.251-.151a2.905,2.905,0,0,1,.995.192,2.485,2.485,0,0,1,.811.5,3.558,3.558,0,0,1,.624.817,5.5,5.5,0,0,1,.458,1.038,9.466,9.466,0,0,1,.295,1.207,11.524,11.524,0,0,1,.158,1.227h0c.027.381.04.78.04,1.185a2.337,2.337,0,0,1-.671,1.792Zm0,0" transform="translate(-151.607 160.907)" fill="#fff"/>
  </g>
</svg>
